<svg width="183" height="183" viewBox="0 0 183 183" fill="none" xmlns="http://www.w3.org/2000/svg">
<g clip-path="url(#clip0_1157_2479)">
<path d="M138.623 75.75L125.66 40.065C123.449 34.0413 117.73 30 111.325 30H91.5V45.25H111.325L122.457 75.75H85.7812L83.0363 68.125H91.5V52.875H53.375V68.125H66.7188L80.5962 106.25H75.4875C72.1325 89.2463 57.8737 76.665 40.0312 75.8263C18.6813 74.7588 0 92.525 0 113.875C0 135.225 16.775 152 38.125 152C56.8825 152 72.0562 139.114 75.4875 121.5H107.513C110.868 138.504 125.126 151.085 142.969 151.924C164.319 152.915 183 135.225 183 113.799C183 92.4488 166.225 75.6738 144.875 75.6738H138.623V75.75ZM59.6275 121.5C56.5775 130.421 48.2663 136.75 38.125 136.75C25.315 136.75 15.25 126.685 15.25 113.875C15.25 101.065 25.315 91 38.125 91C48.2663 91 56.5775 97.3288 59.6275 106.25H38.125V121.5H59.6275ZM107.513 106.25H96.8375L91.2713 91H114.375C111.02 95.4225 108.58 100.531 107.513 106.25ZM144.875 136.75C132.065 136.75 122 126.685 122 113.875C122 106.784 125.126 100.684 130.006 96.49L137.326 116.62L151.661 111.435L144.265 91.0763C144.494 91.0763 144.723 91 144.951 91C157.761 91 167.826 101.065 167.826 113.875C167.826 126.685 157.685 136.75 144.875 136.75Z" fill="black"/>
</g>
<defs>
<clipPath id="clip0_1157_2479">
<rect width="183" height="183" fill="white"/>
</clipPath>
</defs>
</svg>
