<svg width="150" height="43" viewBox="0 0 150 43" fill="none" xmlns="http://www.w3.org/2000/svg">
<path d="M8 34.6053L13.4345 9.18421H26.7011C29.2585 9.18421 31.1233 9.81579 32.2955 11.0789C33.4676 12.3421 33.8273 14.0263 33.3744 16.1316C33.0814 17.4737 32.5752 18.6053 31.8559 19.5263C31.1633 20.4211 30.3241 21.1184 29.3385 21.6184C30.4307 22.0395 31.2166 22.6974 31.6961 23.5921C32.1756 24.4605 32.2555 25.6447 31.9358 27.1447C31.4297 29.5658 30.3508 31.4211 28.6991 32.7105C27.0741 33.9737 24.8363 34.6053 21.9859 34.6053H8ZM17.6702 19.5263H22.905C24.0238 19.5263 24.8896 19.2763 25.5023 18.7763C26.1151 18.2763 26.5146 17.5789 26.7011 16.6842C26.9142 15.7105 26.821 14.9868 26.4214 14.5132C26.0218 14.0132 25.156 13.7632 23.824 13.7632H18.909L17.6702 19.5263ZM15.3925 30.0658H21.2666C22.572 30.0658 23.5177 29.8289 24.1037 29.3553C24.7165 28.8816 25.156 28.0395 25.4224 26.8289C25.6355 25.8553 25.5157 25.1316 25.0628 24.6579C24.6099 24.1579 23.7042 23.9079 22.3455 23.9079H16.7112L15.3925 30.0658Z" fill="black"/>
<path d="M36.9289 12.9342L37.9679 8.1579H44.9608L43.9219 12.9342H36.9289ZM32.8131 34.6053L35.8101 20.5921H33.0129L34.5713 15.8947H43.2426L39.2466 34.6053H32.8131Z" fill="black"/>
<path d="M41.3482 34.6053L47.0625 8H53.496L50.499 21.8947L57.9714 15.8947H65.2841L56.0134 23.6711L61.7276 34.6053H54.8945L51.2582 27.0263L49.0205 28.8421L47.7817 34.6053H41.3482Z" fill="black"/>
<path d="M69.9843 35C67.9863 35 66.2281 34.6447 64.7096 33.9342C63.2178 33.1974 62.1389 32.1053 61.4729 30.6579C60.8069 29.2105 60.7004 27.4079 61.1532 25.25C61.7926 22.2763 63.058 19.9079 64.9494 18.1447C66.8408 16.3816 69.5714 15.5 73.1411 15.5C75.0592 15.5 76.6443 15.8816 77.8963 16.6447C79.175 17.3816 80.0675 18.3816 80.5736 19.6447C81.0798 20.9079 81.1597 22.3421 80.8134 23.9474L80.0941 27.3026H66.6677C66.6943 28.5395 67.1339 29.4079 67.9863 29.9079C68.8388 30.3816 70.3173 30.6184 72.4219 30.6184C73.4608 30.6184 74.5397 30.5263 75.6586 30.3421C76.7775 30.1579 77.7232 29.9211 78.4957 29.6316L77.6166 33.7763C76.6309 34.1974 75.4854 34.5 74.1801 34.6842C72.8747 34.8947 71.4761 35 69.9843 35ZM67.4669 23.6316H75.299L75.4588 22.8026C75.6719 21.8816 75.552 21.1579 75.0991 20.6316C74.6463 20.0789 73.7538 19.8026 72.4219 19.8026C70.8767 19.8026 69.7312 20.1184 68.9853 20.75C68.266 21.3553 67.7599 22.3158 67.4669 23.6316Z" fill="black"/>
<path d="M87.1957 34.6053L92.6302 9.18421H103.14C105.937 9.18421 107.935 9.94737 109.134 11.4737C110.332 13 110.665 14.9737 110.133 17.3947C109.626 19.8684 108.547 21.8289 106.896 23.2763C105.244 24.6974 102.9 25.4079 99.8629 25.4079H92.4304L90.4724 34.6053H87.1957ZM92.9898 22.8816H99.9029C102.061 22.8816 103.672 22.3947 104.738 21.4211C105.804 20.4211 106.51 19.0789 106.856 17.3947C107.255 15.6053 107.162 14.2237 106.576 13.25C105.99 12.25 104.631 11.75 102.5 11.75H95.3874L92.9898 22.8816Z" fill="black"/>
<path d="M108.455 34.6053L112.451 15.8947H115.408L115.129 18.2632C116.221 17.6579 117.446 17.1053 118.805 16.6053C120.164 16.1053 121.482 15.7368 122.761 15.5L122.242 18.0263C121.442 18.1842 120.577 18.4079 119.644 18.6974C118.712 18.9605 117.806 19.2632 116.927 19.6053C116.074 19.9474 115.342 20.3026 114.729 20.6711L111.732 34.6053H108.455Z" fill="black"/>
<path d="M128.042 35C124.925 35 122.754 34.1711 121.528 32.5132C120.303 30.8289 120.023 28.4079 120.689 25.25C121.382 22.1184 122.607 19.7105 124.365 18.0263C126.15 16.3421 128.774 15.5 132.237 15.5C135.381 15.5 137.565 16.3421 138.791 18.0263C140.043 19.7105 140.323 22.1184 139.63 25.25C138.964 28.4079 137.739 30.8289 135.954 32.5132C134.169 34.1711 131.531 35 128.042 35ZM128.641 32.2368C130.905 32.2368 132.624 31.6842 133.796 30.5789C134.995 29.4474 135.847 27.6711 136.353 25.25C136.886 22.75 136.833 20.9605 136.193 19.8816C135.554 18.8026 134.036 18.2632 131.638 18.2632C129.4 18.2632 127.695 18.8289 126.523 19.9605C125.351 21.0658 124.499 22.8289 123.966 25.25C123.433 27.7763 123.486 29.5789 124.126 30.6579C124.765 31.7105 126.27 32.2368 128.641 32.2368Z" fill="black"/>
</svg>
