<svg width="12" height="12" viewBox="0 0 12 12" fill="none" xmlns="http://www.w3.org/2000/svg">
<path d="M11.7251 2.23151C11.6457 2.15815 11.5513 2.09993 11.4472 2.06019C11.3432 2.02046 11.2316 2 11.1189 2C11.0062 2 10.8946 2.02046 10.7905 2.06019C10.6865 2.09993 10.592 2.15815 10.5126 2.23151L4.15139 8.07013L1.47882 5.61259C1.3964 5.53961 1.29911 5.48223 1.1925 5.44372C1.08589 5.40521 0.972054 5.38633 0.857483 5.38814C0.742911 5.38996 0.629852 5.41244 0.524761 5.45431C0.419669 5.49618 0.324603 5.55661 0.244991 5.63215C0.165378 5.7077 0.102779 5.79687 0.0607656 5.89459C0.0187524 5.99231 -0.00185163 6.09666 0.000130571 6.20167C0.00211277 6.30669 0.0266423 6.41032 0.0723181 6.50665C0.117994 6.60298 0.183922 6.69012 0.266338 6.76309L3.54515 9.76849C3.62453 9.84185 3.71897 9.90007 3.82302 9.93981C3.92707 9.97954 4.03867 10 4.15139 10C4.26411 10 4.37572 9.97954 4.47977 9.93981C4.58382 9.90007 4.67825 9.84185 4.75763 9.76849L11.7251 3.38201C11.8118 3.30872 11.881 3.21977 11.9283 3.12077C11.9756 3.02176 12 2.91485 12 2.80676C12 2.69867 11.9756 2.59176 11.9283 2.49275C11.881 2.39375 11.8118 2.3048 11.7251 2.23151V2.23151Z" fill="black"/>
</svg>
