<svg width="24" height="24" viewBox="0 0 24 24" fill="none" xmlns="http://www.w3.org/2000/svg">
<g clip-path="url(#clip0_1130_2666)">
<path d="M3 8.50001C4 2.00005 12 3.99993 12 7.49995C12 3.99998 20.0911 2.13756 21 8.50003C21.5 12.0001 15.3333 17.3333 12 20C4 13.6 3 11.0001 3 8.50001Z" fill="black"/>
<path d="M3 8.50001L1.91279 8.33275C1.90428 8.3881 1.9 8.44401 1.9 8.50001H3ZM12 20L11.3128 20.859L12 21.4087L12.6872 20.859L12 20ZM21 8.50003L22.0889 8.34447L22.0889 8.34447L21 8.50003ZM13.1 7.49995C13.1 6.17672 12.3437 5.10244 11.3972 4.38773C10.4469 3.67013 9.20415 3.22626 7.93958 3.15188C6.66838 3.07712 5.303 3.37324 4.16566 4.23125C3.01287 5.1009 2.19957 6.46873 1.91279 8.33275L4.08721 8.66728C4.30043 7.28132 4.86213 6.46165 5.49059 5.98754C6.1345 5.50178 6.95662 5.29788 7.81042 5.34809C8.67085 5.39869 9.49062 5.7048 10.0715 6.14343C10.6563 6.58496 10.9 7.07317 10.9 7.49995H13.1ZM1.9 8.50001C1.9 9.9724 2.21763 11.4709 3.60275 13.4239C4.94378 15.3147 7.29145 17.6418 11.3128 20.859L12.6872 19.141C8.70855 15.9582 6.55622 13.7853 5.39725 12.1512C4.28237 10.5792 4.1 9.52767 4.1 8.50001H1.9ZM12.6872 20.859C14.3655 19.5163 16.7973 17.4714 18.7547 15.2989C19.7324 14.2138 20.6231 13.0628 21.2407 11.9223C21.8481 10.8008 22.2625 9.55928 22.0889 8.34447L19.9111 8.65559C19.9875 9.19082 19.8186 9.92849 19.3062 10.8747C18.804 11.8019 18.0385 12.8072 17.1203 13.8262C15.2861 15.862 12.9678 17.8171 11.3128 19.141L12.6872 20.859ZM22.0889 8.34447C21.8261 6.50477 21.0204 5.15082 19.8707 4.28774C18.7394 3.43838 17.375 3.13883 16.1037 3.20297C14.8381 3.26683 13.5873 3.69347 12.6274 4.39827C11.6709 5.10057 10.9 6.16831 10.9 7.49995H13.1C13.1 7.0816 13.3405 6.60405 13.9295 6.17161C14.515 5.74167 15.3438 5.44411 16.2146 5.40018C17.0797 5.35653 17.9085 5.56559 18.5499 6.0471C19.173 6.51488 19.7194 7.31406 19.9111 8.6556L22.0889 8.34447Z" fill="black"/>
</g>
<defs>
<clipPath id="clip0_1130_2666">
<rect width="24" height="24" fill="white"/>
</clipPath>
</defs>
</svg>
