<svg width="132" height="27" viewBox="0 0 132 27" fill="none" xmlns="http://www.w3.org/2000/svg">
<path d="M0 26.6053L5.43452 1.18421H18.7011C21.2585 1.18421 23.1233 1.81579 24.2955 3.07895C25.4676 4.34211 25.8273 6.02631 25.3744 8.13158C25.0814 9.47368 24.5752 10.6053 23.8559 11.5263C23.1633 12.4211 22.3241 13.1184 21.3385 13.6184C22.4307 14.0395 23.2166 14.6974 23.6961 15.5921C24.1756 16.4605 24.2555 17.6447 23.9358 19.1447C23.4297 21.5658 22.3508 23.4211 20.6991 24.7105C19.0741 25.9737 16.8363 26.6053 13.9859 26.6053H0ZM9.67024 11.5263H14.905C16.0238 11.5263 16.8896 11.2763 17.5023 10.7763C18.1151 10.2763 18.5146 9.57895 18.7011 8.68421C18.9142 7.71053 18.821 6.98684 18.4214 6.51316C18.0218 6.01316 17.156 5.76316 15.824 5.76316H10.909L9.67024 11.5263ZM7.39254 22.0658H13.2666C14.572 22.0658 15.5177 21.8289 16.1037 21.3553C16.7165 20.8816 17.156 20.0395 17.4224 18.8289C17.6355 17.8553 17.5157 17.1316 17.0628 16.6579C16.6099 16.1579 15.7042 15.9079 14.3455 15.9079H8.71121L7.39254 22.0658Z" fill="white"/>
<path d="M28.9289 4.93421L29.9679 0.157895H36.9608L35.9219 4.93421H28.9289ZM24.8131 26.6053L27.8101 12.5921H25.0129L26.5713 7.89474H35.2426L31.2466 26.6053H24.8131Z" fill="white"/>
<path d="M33.3482 26.6053L39.0625 0H45.496L42.499 13.8947L49.9714 7.89474H57.2841L48.0134 15.6711L53.7276 26.6053H46.8945L43.2582 19.0263L41.0205 20.8421L39.7817 26.6053H33.3482Z" fill="white"/>
<path d="M61.9843 27C59.9863 27 58.2281 26.6447 56.7096 25.9342C55.2178 25.1974 54.1389 24.1053 53.4729 22.6579C52.8069 21.2105 52.7004 19.4079 53.1532 17.25C53.7926 14.2763 55.058 11.9079 56.9494 10.1447C58.8408 8.38158 61.5714 7.5 65.1411 7.5C67.0592 7.5 68.6443 7.88158 69.8963 8.64474C71.175 9.38158 72.0675 10.3816 72.5736 11.6447C73.0798 12.9079 73.1597 14.3421 72.8134 15.9474L72.0941 19.3026H58.6677C58.6943 20.5395 59.1339 21.4079 59.9863 21.9079C60.8388 22.3816 62.3173 22.6184 64.4219 22.6184C65.4608 22.6184 66.5397 22.5263 67.6586 22.3421C68.7775 22.1579 69.7232 21.9211 70.4957 21.6316L69.6166 25.7763C68.6309 26.1974 67.4854 26.5 66.1801 26.6842C64.8747 26.8947 63.4761 27 61.9843 27ZM59.4669 15.6316H67.299L67.4588 14.8026C67.6719 13.8816 67.552 13.1579 67.0991 12.6316C66.6463 12.0789 65.7538 11.8026 64.4219 11.8026C62.8767 11.8026 61.7312 12.1184 60.9853 12.75C60.266 13.3553 59.7599 14.3158 59.4669 15.6316Z" fill="white"/>
<path d="M79.1957 26.6053L84.6302 1.18421H95.1396C97.9368 1.18421 99.9348 1.94737 101.134 3.47368C102.332 5 102.665 6.97368 102.133 9.39474C101.626 11.8684 100.547 13.8289 98.8958 15.2763C97.2441 16.6974 94.8998 17.4079 91.8629 17.4079H84.4304L82.4724 26.6053H79.1957ZM84.9898 14.8816H91.9029C94.0607 14.8816 95.6724 14.3947 96.738 13.4211C97.8036 12.4211 98.5095 11.0789 98.8559 9.39474C99.2554 7.60526 99.1622 6.22368 98.5761 5.25C97.9901 4.25 96.6314 3.75 94.5002 3.75H87.3874L84.9898 14.8816Z" fill="white"/>
<path d="M100.455 26.6053L104.451 7.89474H107.408L107.129 10.2632C108.221 9.65789 109.446 9.10526 110.805 8.60526C112.164 8.10526 113.482 7.73684 114.761 7.5L114.242 10.0263C113.442 10.1842 112.577 10.4079 111.644 10.6974C110.712 10.9605 109.806 11.2632 108.927 11.6053C108.074 11.9474 107.342 12.3026 106.729 12.6711L103.732 26.6053H100.455Z" fill="white"/>
<path d="M120.042 27C116.925 27 114.754 26.1711 113.528 24.5132C112.303 22.8289 112.023 20.4079 112.689 17.25C113.382 14.1184 114.607 11.7105 116.365 10.0263C118.15 8.3421 120.774 7.5 124.237 7.5C127.381 7.5 129.565 8.3421 130.791 10.0263C132.043 11.7105 132.323 14.1184 131.63 17.25C130.964 20.4079 129.739 22.8289 127.954 24.5132C126.169 26.1711 123.531 27 120.042 27ZM120.641 24.2368C122.905 24.2368 124.624 23.6842 125.796 22.5789C126.995 21.4474 127.847 19.6711 128.353 17.25C128.886 14.75 128.833 12.9605 128.193 11.8816C127.554 10.8026 126.036 10.2632 123.638 10.2632C121.4 10.2632 119.695 10.8289 118.523 11.9605C117.351 13.0658 116.499 14.8289 115.966 17.25C115.433 19.7763 115.486 21.5789 116.126 22.6579C116.765 23.7105 118.27 24.2368 120.641 24.2368Z" fill="white"/>
</svg>
